<svg width="158" height="169" viewBox="0 0 158 169" fill="none" xmlns="http://www.w3.org/2000/svg">
<path d="M108.626 76.479C101.303 65.5793 90.5717 57.4158 78.113 53.2666C65.6542 49.1174 52.1712 49.2166 39.7749 53.5488C27.3786 57.881 16.7688 66.2016 9.60649 77.2079C2.44421 88.2142 -0.866165 101.285 0.193627 114.374C1.25342 127.462 6.62355 139.83 15.4633 149.541C24.303 159.251 36.1133 165.756 49.0451 168.038C61.9769 170.319 75.3002 168.248 86.9291 162.148C98.5581 156.049 107.836 146.265 113.311 134.329L96.117 126.443C92.3871 134.575 86.0658 141.241 78.1427 145.397C70.2197 149.553 61.1422 150.964 52.3314 149.41C43.5207 147.855 35.474 143.423 29.4513 136.807C23.4286 130.191 19.7698 121.765 19.0478 112.847C18.3257 103.929 20.5811 95.024 25.461 87.5251C30.3408 80.0263 37.5695 74.3573 46.0154 71.4056C54.4613 68.454 63.6476 68.3864 72.136 71.2133C80.6245 74.0403 87.9359 79.6023 92.9256 87.0285L108.626 76.479Z" fill="#54A2FC"/>
<path d="M43.6231 35.945C48.7118 24.0895 57.5246 14.2148 68.7273 7.81577C79.93 1.41675 92.9125 -1.15811 105.709 0.481006C118.506 2.12012 130.421 7.88397 139.649 16.8999C148.877 25.9159 154.917 37.693 156.853 50.4483C158.79 63.2036 156.518 76.2426 150.381 87.5911C144.244 98.9397 134.577 107.98 122.843 113.343C111.11 118.706 97.9478 120.1 85.3507 117.315C72.7536 114.529 61.4072 107.714 53.0291 97.9033L67.4139 85.6197C73.122 92.3042 80.8526 96.9469 89.4353 98.845C98.018 100.743 106.985 99.7932 114.98 96.1391C122.975 92.485 129.561 86.3257 133.742 78.5937C137.923 70.8617 139.471 61.978 138.152 53.2875C136.832 44.597 132.717 36.5729 126.43 30.4302C120.143 24.2874 112.025 20.3603 103.306 19.2436C94.5874 18.1268 85.7421 19.8811 78.1094 24.2409C70.4768 28.6007 64.4724 35.3286 61.0053 43.406L43.6231 35.945Z" fill="#54A2FC"/>
<path d="M114.967 126.977C114.667 129.86 114.206 131.491 113.014 133.811L98.3676 126.977H114.967Z" fill="#54A2FC" stroke="#54A2FC"/>
<path d="M42.1024 42.8766C42.4026 39.994 42.8636 38.3629 44.0555 36.0426L58.702 42.8766H42.1024Z" fill="#54A2FC" stroke="#54A2FC"/>
</svg>
